<svg xmlns="http://www.w3.org/2000/svg" width="24.2" height="24" viewBox="0 0 24.2 24">
  <g id="sliders-horizontal" transform="translate(-0.201 -0.303)">
    <rect id="Ret창ngulo_6192" data-name="Ret창ngulo 6192" width="24" height="24" transform="translate(0.303 0.303)" fill="none"/>
    <path id="Uni찾o_648" data-name="Uni찾o 648" d="M-5336.027,15088h-12.57a1.1,1.1,0,0,1-1.1-1.1,1.1,1.1,0,0,1,1.1-1.1h12.57a3.626,3.626,0,0,1,3.431-2.5,3.625,3.625,0,0,1,3.427,2.5h2.572a1.1,1.1,0,0,1,1.1,1.1,1.1,1.1,0,0,1-1.1,1.1h-2.572a3.63,3.63,0,0,1-3.427,2.5A3.632,3.632,0,0,1-5336.027,15088Zm2.03-1.1a1.4,1.4,0,0,0,1.4,1.4,1.4,1.4,0,0,0,1.4-1.4,1.4,1.4,0,0,0-1.4-1.4A1.4,1.4,0,0,0-5334,15086.9Zm-10.028-9.9h-4.571a1.1,1.1,0,0,1-1.1-1.1,1.1,1.1,0,0,1,1.1-1.1h4.571a3.625,3.625,0,0,1,3.427-2.5,3.621,3.621,0,0,1,3.427,2.5h10.574a1.1,1.1,0,0,1,1.1,1.1,1.1,1.1,0,0,1-1.1,1.1h-10.574a3.618,3.618,0,0,1-3.427,2.5A3.622,3.622,0,0,1-5344.025,15077Zm2.03-1.1a1.4,1.4,0,0,0,1.4,1.4,1.4,1.4,0,0,0,1.4-1.4,1.4,1.4,0,0,0-1.4-1.4A1.4,1.4,0,0,0-5342,15075.9Z" transform="translate(5349.9 -15069.1)" fill="#926836"/>
  </g>
</svg>
